<svg xmlns="http://www.w3.org/2000/svg" viewBox="0 0 619.87 278.86">
  <path fill="#f2f2f2" d="M310.41 0c56.43.39 110.69 12.11 163.46 31.41C514.42 46.24 553 64.93 586.76 92.29a159.57 159.57 0 0 1 23.61 24.29c12.58 15.71 12.85 28.92-.27 44.2a174.88 174.88 0 0 1-30.78 28.27c-59.47 42.4-125.76 69.12-197.31 82.83-73.88 14.17-146.24 5.83-217.38-16.47-42.95-13.47-83.74-31.65-120.25-58.41C29 185.64 15.43 172.5 4.94 156.28c-6.71-10.39-6.57-19.84.33-30.07 15-22.19 35.1-38.64 57.36-52.72 53.73-34 112.44-55.06 174.74-66.69A426 426 0 0 1 310.41 0zM40.59 171.56c161.88 124.83 377.3 119.13 539.89-3.56-9.49-6.91-16.92-15.15-17.72-27.55s6.19-21.24 14.49-29.4c-1.3-1.2-2-1.92-2.75-2.51C537 79.9 496.83 56 452.4 39.5 383 13.67 312 5.64 238.92 19.85 170.18 33.21 108.34 61.66 52.79 104.1c-3.52 2.69-7 5.41-10.52 8.11 18.82 25.79 18.54 35.22-1.68 59.35zm567-30.91c-.11-9.57-7.58-17.88-16-17.82-8.68.06-16.16 8.67-16 18.38.18 9.16 7.63 17.24 16 17.38 8.2.14 16.06-8.71 15.96-17.94zm-576.72-16.9c-7.93 0-16 8.75-16.07 17.37s8.14 17.64 15.9 17.49c9.06-.18 16.77-8.31 16.73-17.64s-7.74-17.26-16.56-17.22z"/>
  <path fill="none" d="M40.59 171.56c20.22-24.13 20.5-33.57 1.68-59.35 3.49-2.7 7-5.42 10.52-8.11 55.55-42.44 117.39-70.89 186.13-84.25C312 5.64 383 13.67 452.4 39.5 496.83 56 537 79.9 574.5 108.58c.77.59 1.45 1.31 2.75 2.51-8.3 8.16-15.3 17-14.49 29.4S571 161.13 580.48 168c-162.59 122.69-378.01 128.39-539.89 3.56zm404.76 52.82c5.27-1.61 9.47-3.2 13.81-4.13 4.09-.88 5.45-2.69 5.43-7.06-.19-44.82-.61-89.65.23-134.46.22-11.4-4.48-16.82-13.62-20.67-1.84-.78-3.66-1.6-5.52-2.32-21.26-8.13-43.46-12.36-65.8-16.11-11.33-1.91-9.45-.37-9.48 7.81q-.34 94.73-.42 189.45c0 1.57.27 3.14.44 5l21.3-4v-5.43c0-35.49-.1-71 0-106.48.07-20.32.43-40.65.87-61 0-1.88 1.11-4.63 2.52-5.34s4.38 0 5.78 1.18c5.37 4.45 9.33 9.81 9.35 17.33q.23 71.73.57 143.47v12.86l18.64-4.88v-5.51c.07-30.33.09-60.66.25-91 .09-19.66.35-39.32.65-59 0-1.47.84-4.06 1.51-4.14a6.36 6.36 0 0 1 4.83 1.48c4.38 4.79 8.17 9.71 8.14 17-.1 24.32.35 48.65.47 73 .13 20.67.05 41.32.05 62.95zm-86.52-85.63h-38.91c-10 0-9.82 0-11.81 9.73-.84 4.08.46 5.63 4.41 5.61 5.83 0 11.66-.08 17.49.08 6.56.17 8.06 1.36 8.14 8 .22 17.49.14 35 .07 52.47 0 4.73-1.74 8.79-5.78 11.61-7.9 5.5-16.44 5.89-25.21 2.75-5.75-2.06-9.61-5.79-9.25-12.59.15-2.82-.25-5.66-.26-8.49q-.11-74.46-.24-148.94a6.89 6.89 0 0 1 3.52-6.51c13.84-9.15 29.83-3.13 36 13.8h21.8c0-5.57.08-10.86-.07-16.14a5.52 5.52 0 0 0-1.44-3c-5.05-6-11.13-10.38-18.82-12.49a79.58 79.58 0 0 0-36.14-1.14A99.64 99.64 0 0 0 282 39.88c-5.46 2.32-8.16 6.6-8.11 13.38.33 43.82.08 87.63.22 131.45 0 14.48.16 29 1.2 43.42.81 11.39 9.15 18.55 20.69 18.81 12.82.3 25.67-.28 38.48.28 7.15.3 12.59-2.47 17.51-6.84 4.31-3.84 7-8.4 6.93-14.75-.27-26.82-.11-53.64-.11-80.46zm-141.25 98.42v-6.75c.15-37 .37-74 .43-111 0-14.83-.08-29.67-.64-44.49-.17-4.29-1-9.48-3.53-12.57-6.3-7.63-15-10.66-25.08-9-14.18 2.33-27 8.08-39.45 15-3.66 2-5.13 4.15-5.09 8.44.22 26.16.09 52.33.13 78.49 0 16.67.05 33.33.32 50 0 2.44.69 6.21 2.28 7 5.76 3 12.05 5.08 18.89 7.8v-6c.11-43 .34-86 .15-129 0-5.36 2-7.78 6.38-9.69 13.56-5.94 20.65-1.83 20.76 12.83.29 41.83.3 83.66.42 125.49 0 4.33-.23 8.68.09 13 .11 1.43 1.3 3.59 2.49 4 6.74 2.28 13.63 4.16 21.45 6.45zm304.78-45.5c6.72-4.07 12.45-7.38 18-11a5.55 5.55 0 0 0 1.89-4.11q-.13-36.71-.63-73.42a5.92 5.92 0 0 0-2.41-4.27c-10.57-6.3-21.14-12.62-32-18.39-8.61-4.58-11.74-3.48-16.32 5.25-6.95 13.25-11.59 27.52-12.24 42.35-1.17 26.59-.94 53.25-1.27 79.88 0 1.24.21 2.49.38 4.33 5.63-2.5 10.87-4.56 15.82-7.16a6.92 6.92 0 0 0 3.15-4.69c.57-6 1.17-12 .61-17.94-.65-6.81 1.89-10.28 8.22-12.32 5.54-1.79 10.77-4.54 16.82-7.17zM255.71 242V38.84l-21.12 2.06v198.93zm-164-107.74c0-3.76.29-6.43-.06-9-.63-4.61 1.28-7.14 5.29-9.35 10.19-5.63 20.12-11.71 30.09-17.72 1.31-.79 3.11-2.18 3.18-3.36.32-6 .15-12.1.15-18.67a30 30 0 0 0-2.81 1.35c-17.36 11.14-34.76 22.23-52 33.59-1.49 1-2.47 3.81-2.51 5.8-.32 19-.31 38-.59 56.94 0 3.21.76 5.06 3.82 6.59 16.66 8.34 33.18 17 49.75 25.44 1.56.8 3.2 1.43 5.5 2.45 0-5.79-.18-10.76.07-15.71.15-3-1-4.46-3.55-5.75q-16.45-8.37-32.72-17.1c-1.43-.77-3.32-2.28-3.45-3.6-.44-4.4-.17-8.88-.17-14.14h12.87c13.42-.11 13.32-.12 12.87-13.75-.11-3.13-1.28-4-4.14-4-6.95.03-13.92-.03-21.59-.03z"/>
  <path fill="none" d="M607.55 140.65c.1 9.23-7.76 18.08-16 17.94-8.38-.14-15.83-8.22-16-17.38-.2-9.71 7.28-18.32 16-18.38 8.45-.06 15.89 8.25 16 17.82z"/>
  <path fill="#f2f2f2" d="M445.35 224.38c0-21.63.08-42.28 0-62.92-.12-24.33-.57-48.66-.47-73 0-7.27-3.76-12.19-8.14-17a6.36 6.36 0 0 0-4.85-1.46c-.67.08-1.48 2.67-1.51 4.14-.3 19.66-.56 39.32-.65 59-.16 30.32-.18 60.65-.25 91v5.51l-18.64 4.88v-12.86q-.3-71.75-.57-143.47c0-7.52-4-12.88-9.35-17.33-1.4-1.16-4.35-1.89-5.78-1.18s-2.48 3.46-2.52 5.34c-.44 20.32-.8 40.65-.87 61-.13 35.49 0 71 0 106.48v5.43l-21.3 4c-.17-1.86-.44-3.43-.44-5q.16-94.72.42-189.45c0-8.18-1.85-9.72 9.48-7.81 22.34 3.75 44.54 8 65.8 16.11 1.86.72 3.68 1.54 5.52 2.32 9.14 3.85 13.84 9.27 13.62 20.67-.84 44.81-.42 89.64-.23 134.46 0 4.37-1.34 6.18-5.43 7.06-4.37.88-8.57 2.47-13.84 4.08zM358.83 138.75v6.42c0 26.82-.16 53.64.11 80.46.06 6.35-2.62 10.91-6.93 14.75-4.92 4.37-10.36 7.14-17.51 6.84-12.81-.56-25.66 0-38.48-.28-11.54-.26-19.88-7.42-20.69-18.81-1-14.43-1.16-28.94-1.2-43.42-.14-43.82.11-87.63-.22-131.45-.05-6.78 2.65-11.06 8.11-13.38a99.64 99.64 0 0 1 20.31-6.41 79.58 79.58 0 0 1 36.14 1.14c7.69 2.11 13.77 6.51 18.82 12.49a5.52 5.52 0 0 1 1.44 3c.15 5.28.07 10.57.07 16.14H337c-6.18-16.93-22.17-22.95-36-13.8a6.89 6.89 0 0 0-3.52 6.56q.22 74.47.24 148.94c0 2.83.41 5.67.26 8.49-.36 6.8 3.5 10.53 9.25 12.59 8.77 3.14 17.31 2.75 25.21-2.75 4-2.82 5.76-6.88 5.78-11.61.07-17.49.15-35-.07-52.47-.08-6.62-1.58-7.81-8.14-8-5.83-.16-11.66-.11-17.49-.08-3.95 0-5.25-1.53-4.41-5.61 2-9.7 1.83-9.73 11.81-9.73h38.91zM217.58 237.17c-7.82-2.29-14.71-4.16-21.45-6.45-1.19-.41-2.38-2.57-2.49-4-.32-4.31-.08-8.66-.09-13-.12-41.83-.13-83.66-.42-125.49-.11-14.66-7.2-18.77-20.76-12.83-4.37 1.92-6.37 4.34-6.37 9.7.19 43 0 86-.15 129v6c-6.84-2.72-13.13-4.76-18.89-7.8-1.59-.83-2.24-4.6-2.28-7-.27-16.66-.29-33.32-.32-50 0-26.16.09-52.33-.13-78.49 0-4.29 1.43-6.41 5.09-8.44 12.46-6.9 25.27-12.65 39.45-15 10.08-1.65 18.78 1.38 25.08 9 2.55 3.09 3.36 8.28 3.53 12.57.56 14.82.66 29.66.64 44.49-.06 37-.28 74-.43 111-.02 1.97-.01 3.95-.01 6.74zM522.36 191.67V163c-6.05 2.63-11.28 5.38-16.82 7.17-6.33 2-8.87 5.51-8.22 12.32.56 5.91 0 12-.61 17.94a6.92 6.92 0 0 1-3.15 4.69c-4.95 2.6-10.19 4.66-15.82 7.16-.17-1.84-.39-3.09-.38-4.33.33-26.63.1-53.29 1.27-79.88.65-14.83 5.29-29.1 12.24-42.35 4.58-8.73 7.71-9.83 16.32-5.25 10.85 5.77 21.42 12.09 32 18.39a5.92 5.92 0 0 1 2.41 4.27q.52 36.7.63 73.42a5.55 5.55 0 0 1-1.89 4.11c-5.53 3.63-11.26 6.94-17.98 11.01zm-27-37.49l1.9.78c7.7-4.5 15.46-8.91 23-13.61 1.07-.66 1.78-2.7 1.81-4.12.16-8.65.11-17.3.05-25.94 0-1.1-.1-2.8-.77-3.2-4.18-2.51-8.46-6.26-12.84-6.43-2.44-.1-5.18 5.88-7.65 9.21a6.14 6.14 0 0 0-.85 2.85q-2.3 20.22-4.61 40.46zM255.71 242l-21.12-2.15V40.9l21.12-2.06zM91.71 134.24c7.67 0 14.64.06 21.61 0 2.86 0 4 .89 4.14 4 .45 13.63.55 13.64-12.87 13.75H91.72c0 5.26-.27 9.74.17 14.14.13 1.32 2 2.83 3.45 3.6q16.27 8.72 32.72 17.1c2.54 1.29 3.7 2.78 3.55 5.75-.25 5-.07 9.92-.07 15.71-2.3-1-3.94-1.65-5.5-2.45-16.57-8.49-33.09-17.1-49.75-25.44-3.06-1.53-3.86-3.38-3.82-6.59.28-19 .27-38 .59-56.94 0-2 1-4.81 2.51-5.8 17.22-11.36 34.62-22.45 52-33.59a30 30 0 0 1 2.81-1.35c0 6.57.17 12.63-.15 18.67-.07 1.18-1.87 2.57-3.18 3.36-10 6-19.9 12.09-30.09 17.72-4 2.21-5.92 4.74-5.29 9.35.33 2.58.04 5.25.04 9.01z"/>
  <path fill="none" d="M495.4 154.18q2.34-20.24 4.69-40.46a6.14 6.14 0 0 1 .85-2.85c2.47-3.33 5.21-9.31 7.65-9.21 4.38.17 8.66 3.92 12.84 6.43.67.4.76 2.1.77 3.2.06 8.64.11 17.29-.05 25.94 0 1.42-.74 3.46-1.81 4.12-7.58 4.7-15.34 9.11-23 13.61z"/>
</svg>
