<svg version="1" xmlns="http://www.w3.org/2000/svg" width="346.667" height="346.667" viewBox="0 0 260.000000 260.000000"><path d="M115.9 71.5c-.2.1-3.1.6-6.4.9-36.2 4-79.5 22.4-99.1 42-13.5 13.5-13.6 18.3-.5 31.5 14.8 14.9 40.5 27.7 71.5 35.6 13.1 3.3 15.8 3.8 27.1 5.2 7.9 1 33.3 1 41.5 0 27.5-3.3 61.8-15.9 85.2-31.2 15.6-10.2 23.8-18.6 24.5-25.1 1.3-11.8-21-30-52.5-42.8-10.4-4.3-30.6-10.9-36.7-11.9-1.6-.3-5.5-1-8.5-1.6-3-.6-7.1-1.3-9-1.6-4-.7-36.6-1.5-37.1-1zm45.6 8.4c26 5.3 52 16.9 73.8 32.9 6.1 4.4 6.6 5 5.1 6.3-3.1 2.5-5.2 8.7-4.4 12.6.7 3 3.6 7.4 6.3 9.4 1.4 1-20.7 14.7-33.6 20.9-27.9 13.2-50.5 18.4-80.7 18.5-16.5 0-23.5-.7-38.9-3.9-11.9-2.5-30.8-9.4-43.4-15.8-4.8-2.4-21.9-13.1-27-16.9-.5-.4.4-2.6 2-4.9 3.5-5.4 3.6-10.9.2-16.9-2.3-4.2-2.4-4.3-.4-5.7 1.1-.8 2.7-2 3.5-2.7.8-.7 5.4-3.8 10.2-7 17.4-11.5 39.6-21 59.8-25.6 15.6-3.5 19.7-3.8 38.5-3.6 14.2.1 20.3.6 29 2.4zM16.7 124.5c1.1.8 2.4 2.6 2.7 4 1.9 7.4-7.4 11.8-11.3 5.4-2.1-3.5-1.9-5.2 1.2-8.7 2.4-2.6 4.4-2.8 7.4-.7zm235.8.5c3.8 4.2.9 12-4.5 12s-8.4-7-4.9-11.5c2.5-3.1 6.8-3.3 9.4-.5z"/><path d="M124.7 85.5c-7.1 1.9-9.7 4-9.8 7.8-.1 6.6 0 53.6.1 63.7.2 11.2 1.5 15.5 5.1 16.8 1.1.5 7.2.8 13.4.7 11.2 0 11.5-.1 14.2-2.8l2.8-2.7v-40h-9.6c-10.2 0-12.4.9-11.7 4.7.3 1.4 1.5 1.9 5.8 2.1 3 .2 5.8.9 6.2 1.5.3.6.6 6.8.5 13.9-.2 11.4-.4 12.9-2.2 14.2-3.3 2.5-9.9 2.5-12.7-.1-1.7-1.5-1.8-4.5-1.8-36.4 0-34.2 0-34.9 2.1-35.9 4.3-2.3 8.1-1.5 11.5 2.3 2.7 3.2 3.7 3.7 7.6 3.7h4.5l-.2-4c-.1-2.2-.8-4.7-1.5-5.5-3.5-4.2-15.8-6.2-24.3-4zM101.3 87.8l-3.3.3v41.4c0 22.8.3 41.6.8 41.8.4.3 2.5.7 4.7.8l4 .4v-42.4c0-46.7.5-43-6.2-42.3zM155.6 87.7c-.3.3-.6 19.5-.6 42.6v42l4.1-.6c2.2-.3 4.3-.8 4.7-1.1.3-.4.6-16.7.7-36.4.1-19.7.5-36.3.8-37 1.1-1.7 3.6-.3 5.2 2.9 1.2 2.3 1.5 8.8 1.5 36v33.1l3.8-.7c2-.4 3.9-.8 4.1-1.1.2-.2.4-14.9.5-32.8.1-17.8.4-32.8.8-33.2 1.1-1 3.5 1.3 4.5 4.4.5 1.5.9 15.4.8 31v28.3l3-.7c5.7-1.2 5.5-.2 5.5-33.4 0-35.9.6-34.1-11.6-37.8-12.9-3.9-26.6-6.6-27.8-5.5zM75.7 94c-3.9 1-13.9 5.7-14.7 7-.4.7-.5 45.4-.1 55.7.1 2.8.7 3.5 3.7 4.8 2 .8 4 1.5 4.5 1.5s.9-13.2.9-29.5c0-28.1.1-29.5 1.9-30.5 3.1-1.6 6.9-1.2 8.1.9.6 1.2 1 13.4 1 32.5 0 34-.5 31.7 7 33.1l3.6.6-.1-35.5V99l-2.6-2.5c-2.9-2.9-7.7-3.8-13.2-2.5zM42.3 110.5c-9.7 6.4-11.3 7.8-11.4 10.2-.6 11.9-.4 24 .4 25 1 1.4 22 12.3 23.7 12.3.9 0 .8-7.7-.1-8.4-.2-.1-3.9-2-8.1-4.2-7.3-3.7-7.8-4.1-7.8-7.2 0-3.1.1-3.2 4.4-3.2 2.4 0 4.8-.6 5.3-1.3.8-1.1.9-1.8.5-5.5-.1-.8-1.9-1.2-5.2-1.2-4.9 0-5-.1-5-2.9 0-2.7.9-3.5 8-7.8 8-4.8 8-4.8 8-9 0-2.4-.3-4.3-.7-4.2-.5 0-5.9 3.4-12 7.4zM208.2 103.7c-1.9.7-5 7.5-6.5 14-.8 3.4-1.4 13.5-1.6 24.2-.2 17.4-.1 18.3 1.6 17.6 1-.4 2.6-.9 3.5-1.2 2.2-.6 3-2.8 3.4-8.3.2-2.5.3-4.9.3-5.3.1-.7 8.4-4.7 9.7-4.7.3 0 .3 2 .1 4.5-.4 6.1.4 7.1 3.9 4.9 1.6-1 3.4-2.3 3.9-3 1.6-1.8.9-32.4-.7-34-2.4-2.3-16.3-9.2-17.6-8.7zm8.4 11.7c1.7 1.2 2.1 2.6 2.2 7.5.1 6.4-.3 6.9-7.1 11.1l-3.9 2.3.6-5.4c2-16.9 3.1-19.1 8.2-15.5z"/></svg>